<svg width="76" height="70" viewBox="0 0 76 70" fill="none" xmlns="http://www.w3.org/2000/svg">
<path d="M38 14.8176L37.082 12.9221L36.5332 11.5574C34.8885 8.08181 32.1595 3.59556 28.1073 1.58103C23.6251 -0.647305 17.5877 -0.47292 14.0169 2.83812C13.3063 3.497 12.9372 3.93372 12.5073 4.73362C12.0983 5.49485 11.7587 6.32355 11.7463 7.15985C11.7416 7.51544 11.8157 8.62241 11.4315 8.82636C11.2678 8.9128 10.9853 8.90294 10.7951 8.9037H9.84387C8.72143 8.90825 7.02636 9.26157 6.03899 9.6854C2.91424 11.0266 1.16685 13.0821 0.792065 15.8791C0.737846 16.281 0.700748 16.3568 0.713114 16.7889L0.791114 17.3955C0.997529 19.0901 1.38468 20.3957 2.52519 21.8689C4.07092 23.8637 7.50292 25.8767 10.1292 26.9298L14.6951 28.5372C15.3096 28.7207 16.3826 28.908 16.6927 29.375C14.8168 29.5721 12.9762 29.9512 11.1756 30.4107C9.38633 30.8664 7.86153 31.2887 6.22924 32.0628C3.37558 33.4162 1.38087 35.3913 0.467699 37.9426C0.084358 39.0117 0.0444067 39.5053 0.0463092 40.5963C0.0510653 43.2212 2.29689 45.7786 5.08777 47.0508C5.97716 47.4565 6.58785 47.5952 7.56094 47.7893C7.90719 47.8591 8.50646 47.9364 8.68814 48.195C8.85936 48.408 8.71763 48.982 8.68814 49.2398C8.56543 49.9146 8.59777 50.606 8.60728 51.2869C8.64914 54.1271 11.4362 56.8839 14.6951 57.8786C16.5224 58.4359 17.9235 58.4314 19.8317 58.4139C21.7303 58.3957 23.5348 57.8218 25.1585 57.081C28.6761 55.4759 31.1312 52.8222 33.4075 50.2254C34.333 49.1692 35.8474 47.2169 36.478 46.0553C36.7348 46.4974 36.6673 46.7218 36.6683 47.1926L36.7548 48.1025L37.2647 52.1967C38.0285 56.3274 39.1747 60.477 41.2484 64.3279C41.8029 65.3583 42.9663 67.4774 43.7101 68.3463C44.1258 68.8323 44.6709 69.4381 45.5108 69.1038C46.4221 68.7406 46.1928 68.1173 45.9274 67.5123L45.1636 66.1475L43.7472 63.7213C40.8669 58.4412 39.3317 51.6493 39.3317 45.9037L40.5549 47.6475L42.035 49.6189C43.518 51.5166 45.9912 54.0164 48.0829 55.4782C49.4355 56.4237 50.9356 57.3449 52.6487 57.8423C54.4275 58.3586 56.0199 58.4314 57.8805 58.4139C62.6404 58.3692 67.3346 55.209 67.3879 51.2869V49.9221L67.2186 48.6332C67.1853 48.2882 67.2633 48.1047 67.6799 47.9607L69.5805 47.5444C70.3367 47.342 71.0073 47.0084 71.6731 46.6657C72.3276 46.3283 72.2715 46.3146 72.8146 45.9105C74.66 44.5359 75.9498 42.5691 75.9536 40.5205C75.9555 39.459 75.8747 38.8183 75.4761 37.791C75.0119 36.5999 74.2918 35.4368 73.3216 34.4549C70.701 31.8035 66.2322 30.5904 62.2561 29.839L60.5439 29.5115L59.4024 29.375V29.1475L62.5414 28.1316C66.3159 26.9382 70.973 24.8008 73.2874 22.0963C73.626 21.7013 74.0559 21.0227 74.3071 20.5799C74.6895 19.9036 74.8692 19.2554 75.0395 18.5328C75.1375 18.115 75.2811 17.2772 75.2878 16.8648C75.3363 13.5355 73.0163 10.524 69.0097 9.36241C68.282 9.15163 67.0198 8.91128 66.2512 8.9037H65.1097C64.2784 8.89915 64.2555 8.77026 64.2536 8.1455V7.3873C64.246 6.12794 63.5849 4.63733 62.7127 3.59632C59.507 -0.228022 53.2984 -0.839129 48.4634 1.31112C47.0965 1.91919 46.1586 2.59929 45.1179 3.5205C42.8141 5.56081 41.4843 7.69589 40.1478 10.1926L39.3754 11.6332L38 14.8176Z" fill="#39993A" stroke="black" stroke-width="0.00333333"/>
</svg>
